<?xml version="1.0" encoding="UTF-8" standalone="no"?>
<svg
   viewBox="0 0 409.96002 240.29437"
   version="1.1"
   id="svg89"
   sodipodi:docname="uigc-logo.svg"
   inkscape:version="1.3.2 (091e20e, 2023-11-25)"
   width="409.96002"
   height="240.29437"
   xmlns:inkscape="http://www.inkscape.org/namespaces/inkscape"
   xmlns:sodipodi="http://sodipodi.sourceforge.net/DTD/sodipodi-0.dtd"
   xmlns="http://www.w3.org/2000/svg"
   xmlns:svg="http://www.w3.org/2000/svg">
  <sodipodi:namedview
     id="namedview89"
     pagecolor="#ffffff"
     bordercolor="#000000"
     borderopacity="0.25"
     inkscape:showpageshadow="2"
     inkscape:pageopacity="0.0"
     inkscape:pagecheckerboard="0"
     inkscape:deskcolor="#d1d1d1"
     inkscape:zoom="0.9047619"
     inkscape:cx="382.42105"
     inkscape:cy="122.68421"
     inkscape:window-width="1392"
     inkscape:window-height="1027"
     inkscape:window-x="0"
     inkscape:window-y="25"
     inkscape:window-maximized="0"
     inkscape:current-layer="svg89" />
  <defs
     id="defs1">
    <style
       id="style1">
      .cls-1, .cls-2, .cls-3, .cls-4, .cls-5, .cls-6, .cls-7, .cls-8, .cls-9, .cls-10, .cls-11, .cls-12, .cls-13, .cls-14, .cls-15 {
        fill: none;
      }

      .cls-1, .cls-2, .cls-3, .cls-4, .cls-7, .cls-8, .cls-16, .cls-17, .cls-10, .cls-11, .cls-18, .cls-12, .cls-13, .cls-14 {
        stroke-miterlimit: 10;
      }

      .cls-1, .cls-2, .cls-3, .cls-6, .cls-7, .cls-11, .cls-18, .cls-14, .cls-15 {
        stroke: #fff;
      }

      .cls-1, .cls-2, .cls-6, .cls-15 {
        stroke-width: 28px;
      }

      .cls-1, .cls-3, .cls-8, .cls-9, .cls-15 {
        stroke-linecap: round;
      }

      .cls-3, .cls-4, .cls-18 {
        stroke-width: 6px;
      }

      .cls-4, .cls-5, .cls-8, .cls-16, .cls-9, .cls-10, .cls-13 {
        stroke: #004a66;
      }

      .cls-5, .cls-6, .cls-9, .cls-15 {
        stroke-linejoin: round;
      }

      .cls-5, .cls-8, .cls-9, .cls-10, .cls-11 {
        stroke-width: 8px;
      }

      .cls-19 {
        fill: #f8d331;
      }

      .cls-20 {
        fill: #004a66;
      }

      .cls-21, .cls-17 {
        fill: #fff;
      }

      .cls-22, .cls-18 {
        fill: #e6b222;
      }

      .cls-23 {
        fill: #318188;
      }

      .cls-24 {
        fill: #db9e28;
      }

      .cls-25 {
        fill: #9ad9e9;
      }

      .cls-26 {
        fill: #337783;
      }

      .cls-7 {
        stroke-width: 5px;
      }

      .cls-16 {
        fill: #00495f;
      }

      .cls-16, .cls-17, .cls-12, .cls-13, .cls-14 {
        stroke-width: 7px;
      }

      .cls-17 {
        stroke: #e6b222;
      }

      .cls-12 {
        stroke: #f8d331;
      }
    </style>
  </defs>
  <g
     id="white"
     transform="translate(-37.240002,-42.205629)">
    <g
       id="g17">
      <rect
         class="cls-2"
         x="215.81"
         y="122.37"
         width="21.959999"
         height="39.98"
         rx="7"
         ry="7"
         id="rect1" />
      <rect
         class="cls-2"
         x="51.240002"
         y="122.37"
         width="21.959999"
         height="39.98"
         rx="7"
         ry="7"
         id="rect2" />
      <circle
         class="cls-2"
         cx="92.900002"
         cy="200.57001"
         r="11.4"
         id="circle2" />
      <circle
         class="cls-2"
         cx="175.12"
         cy="200.57001"
         r="11.4"
         id="circle3" />
      <ellipse
         class="cls-2"
         cx="229.94"
         cy="235.63"
         rx="26.83"
         ry="31.48"
         id="ellipse3" />
      <ellipse
         class="cls-2"
         cx="229.86"
         cy="234.53"
         rx="10.24"
         ry="13.75"
         id="ellipse4" />
      <ellipse
         class="cls-2"
         cx="326.45999"
         cy="236.17"
         rx="26.940001"
         ry="32.009998"
         id="ellipse5" />
      <ellipse
         class="cls-2"
         cx="325.85999"
         cy="234.53"
         rx="10.24"
         ry="13.75"
         id="ellipse6" />
      <path
         class="cls-2"
         d="m 66.53,225.14 c -0.09,-15.24 -0.19,-30.47 -0.28,-45.71 -0.07,-1.02 -0.06,-2.43 0.28,-4.05 0.2,-0.92 0.61,-2.39 1.7,-4.34 1.92,-3.42 3.4,-3.8 4.83,-6.08 1.77,-2.82 1.67,-5.72 1.7,-7.81 0.1,-6.15 1.66,-23.92 3.97,-48.61 0.47,-2.12 0.95,-4.24 1.42,-6.37 0.53,-1.64 1.46,-3.84 3.12,-6.08 0.53,-0.71 2.4,-3.13 5.68,-5.21 2.8,-1.78 5.27,-2.43 5.96,-2.6 1.3,-0.32 2.28,-0.41 4.26,-0.58 1.59,-0.14 4.3,-0.28 7.63,0 0.02,0 0.02,0 0.03,0 27.62,2.34 119.23,0.29 119.23,0.29 1.03,-0.02 3.29,-0.05 5.96,0.87 3.31,1.14 5.53,3.15 6.81,4.34 1.15,1.06 3.03,2.84 4.54,5.79 1.37,2.68 1.77,5.04 1.99,6.37 0.43,2.66 0.31,4.7 0.28,5.21 -0.22,4.47 -0.44,44.22 -0.67,100.83"
         id="path6" />
      <rect
         class="cls-2"
         x="60.580002"
         y="225.14"
         width="142.53999"
         height="25.719999"
         rx="11"
         ry="11"
         id="rect6" />
      <g
         id="g7">
        <line
           class="cls-15"
           x1="117.4"
           y1="190.14"
           x2="149.13"
           y2="190.14"
           id="line6" />
        <line
           class="cls-15"
           x1="117.4"
           y1="206.56"
           x2="149.13"
           y2="206.56"
           id="line7" />
      </g>
      <path
         class="cls-2"
         d="m 134.44,56.53 c 43.19,-0.1 86.38,-0.19 129.57,-0.29 1.03,-0.08 2.72,-0.07 4.67,0.58 2.34,0.79 3.88,2.12 4.67,2.9 4.9,6.14 9.81,12.28 14.71,18.42 0.36,0.75 1.07,1.97 2.4,2.9 1.05,0.73 2.06,1 2.69,1.16 0.91,0.23 1.69,0.29 2.26,0.29 18.86,-0.1 37.72,-0.19 56.58,-0.29 0.1,-2.13 0.26,-3.98 0.42,-5.51 0.12,-1.12 0.24,-2.12 0.99,-2.76 0.69,-0.6 1.58,-0.58 1.98,-0.58 2.09,0.02 5.79,0 10.61,0 0.35,0.05 1.37,0.26 2.26,1.16 0.83,0.85 1.06,1.81 1.13,2.18 9.62,37.47 19.24,74.94 28.86,112.41 0.28,0.99 0.61,2.56 0.57,4.5 -0.05,2.06 -0.09,3.95 -1.41,5.37 -1.34,1.43 -3.25,1.59 -4.1,1.6 -49.04,-0.05 -98.08,-0.1 -147.11,-0.15"
         id="path7" />
      <path
         class="cls-2"
         d="m 143.62,87.74 c -3.08,-3.17 -6.17,-6.34 -9.25,-9.51 -0.53,-0.28 -1.38,-0.68 -2.5,-0.89 -1.81,-0.34 -2.78,0.08 -4.47,-0.07 -1.19,-0.11 -2.7,-0.26 -3.79,-1.23 -0.78,-0.69 -1.05,-1.54 -1.21,-2.19 -0.93,-3.78 -0.78,-11.89 -0.76,-12.86 0,-0.4 0.05,-1.09 0.46,-1.85 0.56,-1.04 1.45,-1.56 1.97,-1.85 1.14,-0.64 2.26,-0.79 2.88,-0.82 h 7.66"
         id="path8" />
      <path
         class="cls-2"
         d="m 125.71,76.85 c 22.06,-0.06 44.13,-0.12 66.19,-0.19 h 65.89 c 0.71,0.13 2.09,0.48 3.45,1.49 1.27,0.94 1.93,2.01 2.23,2.61 0.03,6.91 0.08,20 0.1,26.91 0.1,30.02 0.17,60.04 0.2,90.06"
         id="path9" />
      <path
         class="cls-2"
         d="m 264,186.49 c -0.39,2.21 -0.2,4.02 0,5.16 0.31,1.68 0.8,4.32 3.08,6.38 0.28,0.25 1.64,1.45 3.87,2.11 1.51,0.44 2.82,0.46 3.66,0.41"
         id="path10" />
      <path
         class="cls-6"
         d="m 281.51,100.51 c 6.59,-0.06 13.18,-0.13 19.77,-0.19 6.24,24.71 12.47,49.43 18.71,74.14 h -27.21 c -3.76,-24.65 -7.51,-49.3 -11.27,-73.96 z"
         id="path11" />
      <path
         class="cls-15"
         d="m 317.36,100.69 c 13.12,-0.13 26.23,-0.25 39.35,-0.38 6.62,24.78 13.25,49.55 19.87,74.33 h -41.67 c -5.85,-24.65 -11.7,-49.3 -17.55,-73.96 z"
         id="path12" />
      <path
         class="cls-2"
         d="m 336.51,100.51 c 6.19,24.71 12.38,49.43 18.58,74.14"
         id="path13" />
      <path
         class="cls-2"
         d="m 199.29,138.99 c 5.51,0 11.01,0 16.52,0"
         id="path14" />
      <path
         class="cls-2"
         d="m 301.44,225.9 c 0.43,-2.91 1.04,-5.25 1.53,-6.86 3.19,-10.48 9.08,-16.41 10.28,-17.59 0.8,-0.78 1.48,-1.37 1.92,-1.74"
         id="path15" />
      <path
         class="cls-2"
         d="m 319.99,200.33 c -2.06,2.19 -4.13,4.37 -6.19,6.56"
         id="path16" />
      <path
         class="cls-2"
         d="m 309.1,200.97 c -2.63,2.76 -4.4,5.4 -5.54,7.35 -5.76,9.85 -5.9,19.74 -5.91,23.08 -0.01,4.08 0.53,7.59 0.75,8.88 0.48,2.83 1.11,5.21 1.69,7.05"
         id="path17" />
    </g>
    <line
       class="cls-1"
       x1="58.25"
       y1="268.5"
       x2="433.20001"
       y2="268.5"
       id="line17" />
  </g>
  <g
     id="Layer_9"
     data-name="Layer 9"
     transform="translate(-37.240002,-42.205629)">
    <g
       id="g83">
      <g
         id="g43">
        <polygon
           class="cls-26"
           points="122.02,256.57 114.14,253.19 79.84,251.88 87.32,263.2 96.87,268.51 116.58,269.71 "
           id="polygon17" />
        <polygon
           class="cls-26"
           points="312.54,262.64 299.96,242.1 281.5,241.32 280.07,247.84 289.22,268.66 315.61,270.36 "
           id="polygon18" />
        <ellipse
           class="cls-16"
           cx="123.07"
           cy="237.12"
           rx="20.440001"
           ry="29.540001"
           id="ellipse18" />
        <ellipse
           class="cls-13"
           cx="110.19"
           cy="237.87"
           rx="20.440001"
           ry="29.58"
           id="ellipse19" />
        <ellipse
           class="cls-13"
           cx="101.89"
           cy="240.67"
           rx="24.26"
           ry="27.84"
           id="ellipse20" />
        <path
           class="cls-13"
           d="m 279.8,242.1 c -0.11,2.73 0.07,6.33 1.24,10.35 2.76,9.49 9.21,15.08 12.05,17.26"
           id="path20" />
        <path
           class="cls-13"
           d="m 289.74,241.7 c 0.18,2.97 0.78,7.12 2.61,11.65 3.66,9.06 9.95,13.88 12.72,15.75"
           id="path21" />
        <path
           class="cls-13"
           d="m 263.44,242.56 c -0.62,2.78 -1.58,5.99 -3.09,9.42 -3.08,7 -7.18,12.03 -10.35,15.29"
           id="path22" />
        <path
           class="cls-13"
           d="m 269.46,243.18 c -0.44,3.08 -1.34,7.07 -3.24,11.43 -2.88,6.61 -6.81,11.17 -9.57,13.9"
           id="path23" />
        <path
           class="cls-19"
           d="m 347.27,79.35 c 0.05,-0.77 0.23,-2.11 1.03,-3.51 0.39,-0.69 1.41,-2.24 3.38,-3.21 0.72,-0.35 1.36,-0.53 1.83,-0.63 4.41,-0.02 8.82,-0.05 13.23,-0.07 0.68,-0.02 1.22,0.11 1.55,0.21 1.5,0.46 2.31,1.51 2.53,1.81 0.33,0.44 0.52,0.84 0.63,1.12 10.27,37.62 20.54,75.24 30.81,112.86 0.11,0.5 0.24,1.18 0.28,2 0.03,0.61 0.09,2.51 -0.7,4.74 -0.29,0.81 -1.26,3.29 -3.66,5.35 0,0 -2.39,2.04 -6.05,2.88 -5.21,1.19 -25.89,1.46 -53.87,0.37 1.32,0.66 3.03,1.62 4.88,2.98 1.29,0.95 4.59,3.51 7.51,7.63 0.79,1.11 4.63,6.68 5.82,15.07 1.63,11.45 -2.81,20.19 -4.13,22.7 -1.99,3.79 -4.6,8.75 -10.51,12.28 -6.55,3.91 -13.17,3.53 -16.52,3.35 -2.9,-0.16 -8.64,-0.54 -14.45,-4.09 -9.44,-5.77 -12.14,-15.67 -12.76,-18.24 -13.08,-0.06 -26.15,-0.12 -39.23,-0.19 -0.51,2.23 -1.47,5.37 -3.38,8.75 -1.52,2.7 -6.29,11.12 -16.52,14.33 -9.13,2.86 -16.95,-0.21 -19.15,-1.12 -9.54,-3.92 -13.88,-11.59 -15.02,-13.77 -45.3,-0.06 -90.6,-0.12 -135.9,-0.19 -1.34,-0.32 -3.18,-0.94 -5.07,-2.23 -4.09,-2.81 -5.55,-6.87 -6.01,-8.37 -0.13,-4.28 -0.25,-8.56 -0.38,-12.84 0.06,-0.82 0.26,-2.04 0.94,-3.35 1.36,-2.62 3.7,-3.75 4.5,-4.09 0.13,-15.75 0.25,-31.51 0.38,-47.26 0.21,-1.37 0.66,-3.29 1.69,-5.4 1.13,-2.33 2.53,-3.98 3.57,-5.02 -1.01,0.49 -2.48,1.1 -4.32,1.49 -1.97,0.42 -6.14,1.3 -10.14,-0.74 -5.04,-2.57 -6.36,-8.02 -6.57,-8.93 v -25.86 c 0.16,-1.21 0.62,-3.48 2.25,-5.77 0.33,-0.46 2.59,-3.54 6.76,-4.84 1.77,-0.55 3.31,-0.55 6.38,-0.56 2.43,0 3.65,0 5.07,0.37 1.28,0.34 3.86,1.28 6.38,4.28 0.63,-5.77 1.25,-11.54 1.88,-17.31 0.37,-1.79 1.06,-4.23 2.44,-6.88 1.03,-1.98 3.43,-6.47 8.63,-9.68 1.5,-0.92 3.82,-2.1 6.95,-2.79 13.64,-0.19 27.28,-0.37 40.92,-0.56 -1.44,-2.11 -2.88,-4.22 -4.32,-6.33 -1.38,-0.06 -2.75,-0.12 -4.13,-0.19 -0.64,-0.21 -1.65,-0.63 -2.63,-1.49 -1.48,-1.3 -2.05,-2.84 -2.25,-3.54 -0.13,-4.28 -0.25,-8.56 -0.38,-12.84 -0.03,-0.7 0,-2.01 0.75,-3.35 1.62,-2.91 5.07,-3.31 5.44,-3.35 47.61,0.06 95.23,0.12 142.84,0.19 0.63,0.1 1.6,0.34 2.63,0.93 1.28,0.74 2.05,1.67 2.44,2.23 5.69,7.07 11.39,14.14 17.08,21.21 18.21,-0.19 36.42,-0.37 54.62,-0.56 z"
           id="path24" />
        <path
           class="cls-22"
           d="m 66.69,125.19 c -0.31,-0.09 -2.78,-0.78 -4.49,0.7 -0.62,0.54 -0.93,1.17 -1.08,1.57 0.06,10.55 0.12,21.1 0.18,31.64 0,0.41 0.08,1.11 0.54,1.75 0.93,1.29 2.83,1.51 3.96,1.22 2.2,-0.55 3.18,-3.43 3.78,-5.42 3.74,-12.47 3.15,-26.24 -0.36,-29.9 -1.11,-1.16 -2.52,-1.57 -2.52,-1.57 z"
           id="path25" />
        <path
           class="cls-22"
           d="m 69.83,247.37 c -1.45,-1.78 -2.9,-3.57 -4.35,-5.35 h 134.29 c -0.39,2.44 -0.77,4.88 -1.16,7.32"
           id="path26" />
        <path
           class="cls-22"
           d="m 195.98,222.45 c 0.1,-0.84 0.3,-2.13 0.7,-3.66 3,-11.36 12.55,-17.52 14.92,-19.01 5.89,-3.68 11.25,-4.67 12.81,-4.93 3.03,-0.5 9.75,-1.59 16.33,1.83 0.9,0.47 1.62,0.93 2.11,1.27 -0.09,10.28 -0.19,20.55 -0.28,30.83 -1.64,-0.15 -4.27,-0.19 -7.32,0.7 -0.53,0.16 -2.48,0.75 -4.5,1.97 -5,3.01 -7.33,7.94 -8.17,10 -8.87,-6.34 -17.74,-12.67 -26.61,-19.01 z"
           id="path27" />
        <path
           class="cls-22"
           d="m 257.21,232.59 h 42.8 v 6.34 c -14.22,-0.05 -28.44,-0.09 -42.66,-0.14 -0.05,-2.06 -0.09,-4.13 -0.14,-6.19 z"
           id="path28" />
        <path
           class="cls-22"
           d="m 248.63,208.66 c 19.1,0.14 38.2,0.28 57.3,0.42 l -4.5,12.39 c -15.81,-0.05 -31.63,-0.09 -47.44,-0.14 -1.78,-4.22 -3.57,-8.45 -5.35,-12.67 z"
           id="path29" />
        <path
           class="cls-22"
           d="m 317.33,239.06 c 5.26,-3.71 10.51,-7.41 15.77,-11.12 -0.11,-0.93 -0.46,-2.49 -1.69,-3.66 -3.07,-2.93 -8.57,-0.48 -9.01,-0.28 -0.76,0.35 -3.19,1.58 -4.79,4.36 -2.78,4.84 -0.57,10.05 -0.28,10.7 z"
           id="path30" />
        <path
           class="cls-22"
           d="m 247.41,196.41 c 4.94,0.19 9.89,0.38 14.83,0.56 -0.31,-37.48 -0.63,-74.96 -0.94,-112.44 -11.14,0.13 -22.27,0.25 -33.41,0.38 1.94,3.76 4.12,5.78 5.82,6.95 1.09,0.75 3.07,1.88 5.07,3.75 1.11,1.04 2.25,2.25 2.25,2.25 0,0 0.98,1.04 1.69,1.88 2.65,3.13 1.31,10.32 1.31,10.32 -0.94,5.08 -0.15,30.09 3.38,86.34 z"
           id="path31" />
        <path
           class="cls-22"
           d="m 283.45,110.25 c 5.76,-0.06 11.51,-0.13 17.27,-0.19 0.38,2 0.75,4 1.13,6.01 -6.57,0.13 -13.14,0.25 -19.71,0.38 0.44,-2.06 0.88,-4.13 1.31,-6.19 z"
           id="path32" />
        <path
           class="cls-22"
           d="m 321.36,111 c 5.63,-0.06 11.26,-0.13 16.89,-0.19 0.44,1.94 0.88,3.88 1.31,5.82 -6.01,0.06 -12.01,0.13 -18.02,0.19 -0.06,-1.94 -0.13,-3.88 -0.19,-5.82 z"
           id="path33" />
        <path
           class="cls-22"
           d="m 341.26,110.06 h 14.64 c 0.56,2 1.13,4 1.69,6.01 -5.01,0.13 -10.01,0.25 -15.02,0.38 -0.44,-2.13 -0.88,-4.25 -1.31,-6.38 z"
           id="path34" />
        <path
           class="cls-22"
           d="m 317.8,178.95 c 0.65,-0.54 1.56,-1.45 2.25,-2.82 0.33,-0.65 0.9,-1.79 0.94,-3.38 0.02,-1.05 -0.19,-1.9 -0.38,-2.44 l -13.33,-65.7 c -0.22,-0.91 -0.74,-2.49 -2.06,-3.94 -0.55,-0.6 -2.13,-2.34 -4.69,-2.63 -1.03,-0.12 -1.89,0.04 -2.44,0.19 0.27,0.47 0.67,1.18 1.13,2.06 0,0 1.79,3.47 3.19,7.7 1.18,3.55 2.74,10.23 3.57,18.96 3.32,15.89 6.63,31.78 9.95,47.68 0.63,1.44 1.25,2.88 1.88,4.32 z"
           id="path35" />
        <path
           class="cls-22"
           d="m 353.84,98.05 c 0.44,-0.25 1.33,-0.67 2.44,-0.56 0.71,0.07 1.5,0.35 2.63,1.31 1.87,1.61 2.82,3.52 3,3.94 1.33,3.02 8.41,30.42 17.46,67.95 0.38,1.14 0.51,2.12 0.56,2.82 0.1,1.39 0.21,2.96 -0.75,4.32 -0.48,0.68 -1.08,1.08 -1.5,1.31 -0.38,-1.94 -0.75,-3.88 -1.13,-5.82 -7.57,-25.09 -15.14,-50.18 -22.71,-75.27 z"
           id="path36" />
        <path
           class="cls-22"
           d="m 269.37,195.28 c 1.69,-1.81 3.38,-3.63 5.07,-5.44 40.23,-0.13 80.46,-0.25 120.7,-0.38 0.13,2.88 0.25,5.76 0.38,8.63 -42.36,0.13 -84.72,0.25 -127.08,0.38 0.31,-1.06 0.63,-2.13 0.94,-3.19 z"
           id="path37" />
        <path
           class="cls-22"
           d="m 213.01,153.89 c -0.6,0.88 -1.42,2.31 -1.83,4.22 -0.83,3.88 0.59,7.02 1.13,8.17 2.22,4.72 6.42,6.71 8.02,7.46 1.05,0.5 4.64,2.07 9.43,1.69 1.71,-0.14 5.37,-0.47 8.87,-3.1 1.63,-1.22 2.71,-2.56 3.38,-3.52 -0.05,-3.71 -0.09,-7.41 -0.14,-11.12 -1.47,1.58 -3.96,3.78 -7.6,5.21 -1.96,0.77 -5.09,2 -9.01,1.27 -3.65,-0.68 -6,-2.68 -7.32,-3.8 -2.74,-2.33 -4.2,-4.92 -4.93,-6.48 z"
           id="path38" />
        <path
           class="cls-24"
           d="m 137.13,78.97 c 3.38,2.63 6.76,5.26 10.14,7.88 38.2,0.09 76.4,0.19 114.59,0.28 0.19,-2.82 0.38,-5.63 0.56,-8.45 -41.76,0.09 -83.53,0.19 -125.29,0.28 z"
           id="path39" />
        <path
           class="cls-24"
           d="M 283.26,110.79 H 301 c -0.38,-2.35 -0.75,-4.69 -1.13,-7.04 -5.26,-0.09 -10.51,-0.19 -15.77,-0.28 z"
           id="path40" />
        <path
           class="cls-24"
           d="m 319.3,104.03 c 0.56,2.25 1.13,4.5 1.69,6.76 h 17.46 c -0.75,-2.72 -1.5,-5.44 -2.25,-8.17 -5.63,0.47 -11.26,0.94 -16.89,1.41 z"
           id="path41" />
        <path
           class="cls-24"
           d="m 339.57,103.19 c 0.56,2.47 1.13,4.94 1.69,7.41 h 14.27 c -0.41,-2.22 -0.81,-4.44 -1.22,-6.66 l -14.73,-0.75 z"
           id="path42" />
        <path
           class="cls-24"
           d="m 247.78,202.86 v 7.6 c 19.01,0.05 38.01,0.09 57.02,0.14 0.52,-2.35 1.03,-4.69 1.55,-7.04 -19.52,-0.23 -39.04,-0.47 -58.56,-0.7 z"
           id="path43" />
      </g>
      <path
         class="cls-11"
         d="m 69.99,223.34 c -0.32,-5.55 -0.6,-11.2 -0.82,-16.93 -0.74,-18.98 -0.21,-18.48 -0.59,-23.4 -0.03,-0.43 -0.18,-2.2 0,-4.54 0.16,-2.14 0.31,-4.03 1.25,-6.11 0.49,-1.07 1.54,-2.98 3.79,-4.77 0.96,0.73 2.19,1.54 3.7,2.27 1.19,0.57 2.31,0.97 3.28,1.25 0.83,0.1 1.66,0.21 2.5,0.31 34.8,-0.05 69.6,-0.1 104.4,-0.16 0.67,-0.05 1.59,-0.16 2.65,-0.47 2.89,-0.84 4.7,-2.49 5.46,-3.21 2.29,-2.14 3.28,-4.46 3.59,-5.25 0.66,-1.69 0.87,-3.19 0.94,-4.23 1.09,-14.66 2.18,-29.33 3.28,-43.99 0.14,-0.64 0.29,-1.63 0.16,-2.82 -0.22,-1.98 -1.1,-3.34 -1.58,-4.07 -1.02,-1.55 -2.21,-2.46 -2.79,-2.87 -1.47,-1.02 -2.83,-1.39 -3.9,-1.67 -1.2,-0.32 -2.23,-0.43 -2.96,-0.47 -35.47,0.26 -70.95,0.52 -106.42,0.78"
         id="path44" />
      <rect
         class="cls-11"
         x="218.25"
         y="125.07"
         width="21.959999"
         height="39.98"
         rx="7"
         ry="7"
         id="rect44" />
      <path
         class="cls-17"
         d="m 215.56,166.25 c 9.57,0.46 19.13,0.92 28.7,1.38"
         id="path45" />
      <rect
         class="cls-11"
         x="52.860001"
         y="124.17"
         width="21.959999"
         height="39.98"
         rx="7"
         ry="7"
         id="rect45" />
      <path
         class="cls-11"
         d="m 80.75,117.66 c -0.39,-3.41 -0.43,-8.57 1.67,-14.19 1.24,-3.32 2.73,-7.29 6.68,-10.01 3.35,-2.32 7.37,-2.97 9.6,-3.34 1.93,-0.32 3.55,-0.38 4.59,-0.42 4.11,-0.15 7.19,0.31 7.93,0.42 1.73,0.24 4.15,0.44 28.79,0.83 18.38,0.29 27.57,0.44 31.71,0.42 12.09,-0.06 22.63,-0.39 37.14,-0.83 4.17,-0.13 8.36,0 12.52,-0.42 2.51,-0.25 4.77,-0.57 7.93,0 1.6,0.29 4.07,0.76 6.68,2.5 3.02,2.02 4.49,4.6 5.42,6.26 1.39,2.48 1.89,4.55 2.5,7.09 0.69,2.83 0.9,5.06 1.25,8.76 0.23,2.42 0.35,4.43 0.42,5.84"
         id="path46" />
      <path
         class="cls-11"
         d="m 123.31,59.66 c 47.43,-0.28 94.86,-0.56 142.29,-0.83 0.95,0.04 2.7,0.24 4.59,1.25 2.03,1.08 3.21,2.55 3.76,3.34 6.53,7.68 10.02,12.28 11.68,15.02 0.49,0.81 1.47,2.38 3.34,3.76 1.69,1.25 3.4,1.81 4.59,2.09 h 59.67 c 0.28,0 0.56,0 0.84,0 0.24,-2.68 0.47,-5.36 0.71,-8.04 h 11.18"
         id="path47" />
      <path
         class="cls-11"
         d="m 293.46,172.87 c 0.02,1.02 0.21,3.18 1.76,4.4 0.88,0.69 1.81,0.77 4.84,0.73 3.77,-0.05 6.73,-0.22 8.65,-0.29 2.63,-0.1 5.87,0 5.87,0 3.13,0.02 4.32,0.06 5,-0.77 0.9,-1.09 0.32,-2.98 -0.04,-3.93"
         id="path48" />
      <path
         class="cls-11"
         d="m 335.36,174.98 c 0.17,0.34 0.51,0.9 1.13,1.38 0.96,0.75 1.98,0.86 2.38,0.88 12.08,0.04 24.15,0.08 36.23,0.13 0.19,0 0.94,0.26 1.38,-0.13 0.5,-0.44 0.33,-1.46 0.1,-2.26"
         id="path49" />
      <ellipse
         class="cls-23"
         cx="229.94"
         cy="234.87"
         rx="26.83"
         ry="31.48"
         id="ellipse49" />
      <ellipse
         class="cls-23"
         cx="326.45999"
         cy="235.75999"
         rx="26.83"
         ry="31.48"
         id="ellipse50" />
      <ellipse
         class="cls-19"
         cx="230.14999"
         cy="235.99001"
         rx="9.6199999"
         ry="14.01"
         id="ellipse51" />
      <ellipse
         class="cls-19"
         cx="325.85999"
         cy="234.61"
         rx="9.6199999"
         ry="14.01"
         id="ellipse52" />
      <polygon
         class="cls-26"
         points="217.29,264.68 211.39,255.25 208.58,247.48 195.27,250.47 181.28,250.47 181.8,258.12 188.47,265.71 203.19,271.56 "
         id="polygon52" />
      <path
         class="cls-14"
         d="m 72.09,252.6 c -1.05,-0.48 -2.57,-1.34 -4.07,-2.79 -1.75,-1.69 -2.61,-3.36 -2.79,-3.72 -1.21,-2.41 -1.4,-4.68 -1.39,-6.04 0.04,-1.67 0.08,-3.33 0.12,-5 0.19,-0.78 0.58,-1.9 1.39,-3.02 0.26,-0.36 1.27,-1.7 3.14,-2.67 1.11,-0.58 2.12,-0.82 2.79,-0.93 21.08,-0.19 42.16,-0.39 63.24,-0.58 21.78,0.04 43.55,0.08 65.33,0.12"
         id="path52" />
      <path
         class="cls-7"
         d="m 83.91,207.9 c -0.14,-1.48 -0.23,-3.59 0.02,-6.11 0.28,-2.83 0.42,-4.25 1.37,-5.72 1.82,-2.85 5.04,-3.63 5.97,-3.86 1.01,-0.24 3.34,-0.77 5.85,0.25 1.7,0.69 2.74,1.8 3.86,2.99 1.28,1.36 2.11,2.68 2.61,3.61"
         id="path53" />
      <path
         class="cls-7"
         d="m 167.19,208.13 c -0.6,-1.31 -2.05,-4.93 -0.87,-9.08 0.34,-1.19 0.98,-3.45 3.11,-5.1 2.07,-1.6 4.32,-1.69 5.48,-1.74 3.51,-0.15 6.06,1.42 6.97,1.99 2.51,1.59 3.86,3.66 4.48,4.79"
         id="path54" />
      <path
         class="cls-17"
         d="m 242.33,155.61 c -1.41,3.55 -2.82,7.09 -4.23,10.64"
         id="path55" />
      <path
         class="cls-12"
         d="m 241.39,120.58 c -1.41,3.55 -2.82,7.09 -4.23,10.64"
         id="path56" />
      <path
         class="cls-10"
         d="m 181.32,251.19 c 0.4,2.29 1.28,5.74 3.35,9.45 2.3,4.11 5.08,6.75 6.9,8.23"
         id="path57" />
      <path
         class="cls-10"
         d="m 194.25,251.82 c 1.25,3.98 4.22,11.06 11.16,15.45 1.01,0.64 2.01,1.17 3,1.61"
         id="path58" />
      <path
         class="cls-14"
         d="m 203.53,240.36 c -0.06,-4.13 0.48,-10.63 3.91,-17.43 1.2,-2.38 3.23,-6.29 7.47,-9.86 2.08,-1.75 6.35,-5.34 12.85,-5.98 7.52,-0.73 13.14,2.98 14.97,4.18 2.86,1.89 4.87,4.09 6.85,6.28 2.41,2.65 4.16,5.12 5.36,6.98"
         id="path59" />
      <path
         class="cls-14"
         d="m 305.78,257.01 c -2.67,-6.37 -3.52,-11.88 -3.81,-15.5 -0.41,-5.15 -1.08,-13.42 3.57,-21.71 1.23,-2.19 3.68,-6.44 8.8,-9.62 6.12,-3.81 12.1,-3.62 13.19,-3.57 4.14,0.18 7.13,1.52 9.9,2.75 4.42,1.97 7.61,4.43 9.59,6.19"
         id="path60" />
      <polygon
         class="cls-22"
         points="222,228.55 222,238.34 237.33,225.48 232.14,221.47 226.47,222.85 "
         id="polygon60" />
      <polygon
         class="cls-22"
         points="317.93,229.7 317.93,239.48 333.26,226.63 328.06,222.61 322.4,224 "
         id="polygon61" />
      <circle
         class="cls-20"
         cx="230.14999"
         cy="179.14"
         r="6.46"
         id="circle61" />
      <path
         class="cls-18"
         d="m 66.48,217.76 c -3.58,5.69 -7.15,11.39 -10.73,17.08"
         id="path61" />
      <g
         id="g77">
        <rect
           class="cls-10"
           x="215.81"
           y="122.71"
           width="21.959999"
           height="39.98"
           rx="7"
           ry="7"
           id="rect61" />
        <rect
           class="cls-10"
           x="51.240002"
           y="122.71"
           width="21.959999"
           height="39.98"
           rx="7"
           ry="7"
           id="rect62" />
        <circle
           class="cls-10"
           cx="92.900002"
           cy="200.89999"
           r="11.4"
           id="circle62" />
        <circle
           class="cls-10"
           cx="175.12"
           cy="200.89999"
           r="11.4"
           id="circle63" />
        <ellipse
           class="cls-10"
           cx="229.94"
           cy="235.97"
           rx="26.83"
           ry="31.48"
           id="ellipse63" />
        <ellipse
           class="cls-10"
           cx="229.86"
           cy="234.87"
           rx="10.24"
           ry="13.75"
           id="ellipse64" />
        <ellipse
           class="cls-10"
           cx="326.45999"
           cy="236.5"
           rx="26.940001"
           ry="32.009998"
           id="ellipse65" />
        <ellipse
           class="cls-10"
           cx="325.85999"
           cy="234.87"
           rx="10.24"
           ry="13.75"
           id="ellipse66" />
        <path
           class="cls-10"
           d="m 66.53,225.48 c -0.09,-15.24 -0.19,-30.47 -0.28,-45.71 -0.07,-1.02 -0.06,-2.43 0.28,-4.05 0.2,-0.92 0.61,-2.39 1.7,-4.34 1.92,-3.42 3.4,-3.8 4.83,-6.08 1.77,-2.82 1.67,-5.72 1.7,-7.81 0.1,-6.15 1.66,-23.92 3.97,-48.61 0.47,-2.12 0.95,-4.24 1.42,-6.37 0.53,-1.64 1.46,-3.84 3.12,-6.08 0.53,-0.71 2.4,-3.13 5.68,-5.21 2.8,-1.78 5.27,-2.43 5.96,-2.6 1.3,-0.32 2.28,-0.41 4.26,-0.58 1.59,-0.14 4.3,-0.28 7.63,0 0.02,0 0.02,0 0.03,0 27.62,2.34 119.23,0.29 119.23,0.29 1.03,-0.02 3.29,-0.05 5.96,0.87 3.31,1.14 5.53,3.15 6.81,4.34 1.15,1.06 3.03,2.84 4.54,5.79 1.37,2.68 1.77,5.04 1.99,6.37 0.43,2.66 0.31,4.7 0.28,5.21 -0.22,4.47 -0.44,44.22 -0.67,100.83"
           id="path66" />
        <rect
           class="cls-10"
           x="60.580002"
           y="225.48"
           width="142.53999"
           height="25.719999"
           rx="11"
           ry="11"
           id="rect66" />
        <g
           id="g67">
          <line
             class="cls-9"
             x1="117.4"
             y1="190.47"
             x2="149.13"
             y2="190.47"
             id="line66" />
          <line
             class="cls-9"
             x1="117.4"
             y1="206.89"
             x2="149.13"
             y2="206.89"
             id="line67" />
        </g>
        <path
           class="cls-10"
           d="m 134.44,56.87 c 43.19,-0.1 86.38,-0.19 129.57,-0.29 1.03,-0.08 2.72,-0.07 4.67,0.58 2.34,0.79 3.88,2.12 4.67,2.9 4.9,6.14 9.81,12.28 14.71,18.42 0.36,0.75 1.07,1.97 2.4,2.9 1.05,0.73 2.06,1 2.69,1.16 0.91,0.23 1.69,0.29 2.26,0.29 18.86,-0.1 37.72,-0.19 56.58,-0.29 0.1,-2.13 0.26,-3.98 0.42,-5.51 0.12,-1.12 0.24,-2.12 0.99,-2.76 0.69,-0.6 1.58,-0.58 1.98,-0.58 2.09,0.02 5.79,0 10.61,0 0.35,0.05 1.37,0.26 2.26,1.16 0.83,0.85 1.06,1.81 1.13,2.18 9.62,37.47 19.24,74.94 28.86,112.41 0.28,0.99 0.61,2.56 0.57,4.5 -0.05,2.06 -0.09,3.95 -1.41,5.37 -1.34,1.43 -3.25,1.59 -4.1,1.6 -49.04,-0.05 -98.08,-0.1 -147.11,-0.15"
           id="path67" />
        <path
           class="cls-10"
           d="m 143.62,88.08 c -3.08,-3.17 -6.17,-6.34 -9.25,-9.51 -0.53,-0.28 -1.38,-0.68 -2.5,-0.89 -1.81,-0.34 -2.78,0.08 -4.47,-0.07 -1.19,-0.11 -2.7,-0.26 -3.79,-1.23 -0.78,-0.69 -1.05,-1.54 -1.21,-2.19 -0.93,-3.78 -0.78,-11.89 -0.76,-12.86 0,-0.4 0.05,-1.09 0.46,-1.85 0.56,-1.04 1.45,-1.56 1.97,-1.85 1.14,-0.64 2.26,-0.79 2.88,-0.82 h 7.66"
           id="path68" />
        <path
           class="cls-10"
           d="M 125.71,77.19 C 147.77,77.13 169.84,77.07 191.9,77 h 65.89 c 0.71,0.13 2.09,0.48 3.45,1.49 1.27,0.94 1.93,2.01 2.23,2.61 0.03,6.91 0.08,20 0.1,26.91 0.1,30.02 0.17,60.04 0.2,90.06"
           id="path69" />
        <path
           class="cls-13"
           d="m 264,186.82 c -0.39,2.21 -0.2,4.02 0,5.16 0.31,1.68 0.8,4.32 3.08,6.38 0.28,0.25 1.64,1.45 3.87,2.11 1.51,0.44 2.82,0.46 3.66,0.41"
           id="path70" />
        <path
           class="cls-5"
           d="m 281.51,100.84 c 6.59,-0.06 13.18,-0.13 19.77,-0.19 6.24,24.71 12.47,49.43 18.71,74.14 h -27.21 c -3.76,-24.65 -7.51,-49.3 -11.27,-73.96 z"
           id="path71" />
        <path
           class="cls-9"
           d="m 317.36,101.03 c 13.12,-0.13 26.23,-0.25 39.35,-0.38 6.62,24.78 13.25,49.55 19.87,74.33 h -41.67 c -5.85,-24.65 -11.7,-49.3 -17.55,-73.96 z"
           id="path72" />
        <path
           class="cls-10"
           d="m 336.51,100.84 c 6.19,24.71 12.38,49.43 18.58,74.14"
           id="path73" />
        <path
           class="cls-10"
           d="m 199.29,139.32 c 5.51,0 11.01,0 16.52,0"
           id="path74" />
        <path
           class="cls-13"
           d="m 301.44,226.24 c 0.43,-2.91 1.04,-5.25 1.53,-6.86 3.19,-10.48 9.08,-16.41 10.28,-17.59 0.8,-0.78 1.48,-1.37 1.92,-1.74"
           id="path75" />
        <path
           class="cls-10"
           d="m 319.99,200.67 c -2.06,2.19 -4.13,4.37 -6.19,6.56"
           id="path76" />
        <path
           class="cls-4"
           d="m 309.1,201.3 c -2.63,2.76 -4.4,5.4 -5.54,7.35 -5.76,9.85 -5.9,19.74 -5.91,23.08 -0.01,4.08 0.53,7.59 0.75,8.88 0.48,2.83 1.11,5.21 1.69,7.05"
           id="path77" />
      </g>
      <line
         class="cls-4"
         x1="257.20999"
         y1="247.2"
         x2="299.53"
         y2="247.2"
         id="line77" />
      <line
         class="cls-4"
         x1="250.62"
         y1="260.35001"
         x2="245.69"
         y2="269.04001"
         id="line78" />
      <path
         class="cls-4"
         d="m 273.42,248.96 c -0.29,1.91 -0.77,4.05 -1.52,6.34 -1.72,5.22 -4.24,9.19 -6.34,11.92"
         id="path78" />
      <path
         class="cls-4"
         d="m 270.12,267.47 c 1.25,-1.65 2.59,-3.68 3.8,-6.08 2.29,-4.54 3.32,-8.76 3.8,-11.92"
         id="path79" />
      <path
         class="cls-25"
         d="m 82.07,113.82 c 0.54,-3.26 3.68,-5.92 6.98,-5.92 h 107.4 c 3.3,0 5.76,2.69 5.46,5.98 l -4.3,47.74 c -0.3,3.29 -3.24,5.98 -6.54,5.98 H 79.19 c -3.3,0 -5.56,-2.66 -5.02,-5.92 l 7.9,-47.85 z"
         id="path80" />
      <path
         class="cls-10"
         d="m 78.94,114.55 c 0.58,-5.47 5.55,-9.95 11.05,-9.96 l 102.22,-0.2 c 5.5,-0.01 9.63,4.47 9.18,9.95 l -3.67,44.57 c -0.45,5.48 -5.32,9.97 -10.82,9.97 H 83.2 c -5.5,0 -9.53,-4.48 -8.95,-9.94 l 4.69,-44.38 z"
         id="path81" />
      <line
         class="cls-3"
         x1="103.12"
         y1="120.71"
         x2="98.739998"
         y2="155.84"
         id="line81" />
      <line
         class="cls-3"
         x1="132.17"
         y1="153.89"
         x2="180.05"
         y2="120.58"
         id="line82" />
      <circle
         class="cls-21"
         cx="187.09"
         cy="136.62"
         r="3.0699999"
         id="circle82" />
      <line
         class="cls-3"
         x1="157.38"
         y1="157.41"
         x2="175.12"
         y2="145.06"
         id="line83" />
    </g>
    <line
       class="cls-8"
       x1="58.25"
       y1="268.51001"
       x2="433.20001"
       y2="268.51001"
       id="line84" />
  </g>
</svg>
